<svg width="100" height="100" viewBox="0 0 100 100" fill="none" xmlns="http://www.w3.org/2000/svg">
    <path d="M15.1016 31.1049C15.1644 30.8324 15.2612 30.5389 15.3806 30.2771Z" fill="#4D4D4D"/>
    <path d="M15.3949 30.2455C15.4246 30.1819 15.4557 30.121 15.4874 30.0616C15.4551 30.1223 15.4242 30.1834 15.3949 30.2455Z" fill="#4D4D4D"/>
    <path d="M15.6468 29.7874C15.6766 29.7404 15.7065 29.6951 15.7364 29.6517C15.7056 29.6964 15.6759 29.7416 15.6468 29.7874Z" fill="#4D4D4D"/>
    <path d="M15.5168 30.0064C15.547 29.9516 15.578 29.899 15.6092 29.8481C15.5772 29.9003 15.5463 29.9528 15.5168 30.0064Z" fill="#4D4D4D"/>
    <path d="M15.0584 31.3292C15.0671 31.276 15.075 31.2236 15.0869 31.1675C15.0759 31.221 15.0673 31.2752 15.0584 31.3292Z" fill="#4D4D4D"/>
    <path d="M15.0341 31.4853C15.0356 31.4724 15.0369 31.4616 15.0383 31.4502C15.0367 31.4618 15.0356 31.4737 15.0341 31.4853Z" fill="#4D4D4D"/>
    <path d="M15.0008 32.0095L15.001 32.1743C15.0041 31.8875 15.0146 31.6956 15.0261 31.5661" fill="#4D4D4D"/>
    <path d="M16.788 28.6C16.8384 28.5657 16.8834 28.5365 16.9176 28.5149C16.874 28.5426 16.8304 28.5706 16.788 28.6Z" fill="#4D4D4D"/>
    <path d="M85.0288 31.9199C85.0269 30.4411 84.2363 29.0758 82.9548 28.3381L52.0569 10.5518C50.7753 9.81417 49.1976 9.81613 47.9179 10.5572L17.0657 28.4223C17.0249 28.4459 16.986 28.472 16.9463 28.4969C16.9723 28.4808 16.9887 28.4711 16.9887 28.4711L18.8062 27.4147L18.3401 27.714C18.1679 27.8238 18.0072 27.9484 17.8582 28.0883C17.7325 28.2063 17.5818 28.3562 17.4544 28.5074C17.2214 28.7843 17.2253 29.1885 17.4625 29.4618C17.6137 29.6359 17.6952 29.7298 17.9395 29.8829C18.0341 29.9517 46.3426 46.4825 46.3426 46.4825C48.4699 47.7389 49.824 50.081 49.8286 52.4834C49.8443 60.5505 49.8814 78.6189 49.8954 85.347C49.8956 85.3658 49.8963 85.3832 49.8963 85.4024C49.8963 89.538 53.4221 88.2285 53.7766 88.086L83.0095 71.1585C84.2892 70.4174 85.0764 69.05 85.0744 67.5713L85.0288 31.9199Z" fill="#4D4D4D"/>
    <path d="M53.7722 88.0886C53.7497 88.1008 53.711 88.1234 53.6492 88.1598L53.7722 88.0886Z" fill="#4D4D4D"/>
    <path d="M16.6107 28.7277C16.4638 28.841 16.3256 28.9638 16.1965 29.0945C16.2228 29.0685 16.2465 29.046 16.2662 29.0282C16.3688 28.9358 16.488 28.8217 16.6107 28.7277Z" fill="#4D4D4D"/>
    <path d="M16.0148 29.2904C16.0196 29.285 16.0238 29.2804 16.0284 29.2751C16.0239 29.2803 16.0193 29.2853 16.0148 29.2904Z" fill="#4D4D4D"/>
    <path d="M15.7959 29.5683C15.8201 29.535 15.8443 29.5012 15.8679 29.4704C15.8431 29.5025 15.8198 29.5355 15.7959 29.5683Z" fill="#4D4D4D"/>
    <path d="M46.6457 88.2387C46.6429 88.2371 46.64 88.2355 46.6372 88.2338L46.7926 88.3233C46.7499 88.2982 46.7214 88.2815 46.714 88.2776C46.6929 88.2664 46.6696 88.252 46.6457 88.2387Z" fill="#4D4D4D"/>
    <path d="M53.7783 88.0852C53.778 88.0853 53.7776 88.0855 53.7773 88.0856L53.7722 88.0886C53.774 88.0875 53.7766 88.086 53.7783 88.0852Z" fill="#333333"/>
    <path d="M16.0278 29.2758C16.0821 29.2138 16.1383 29.1533 16.1965 29.0945C16.1491 29.1413 16.091 29.2034 16.0278 29.2758Z" fill="#333333"/>
    <path d="M16.6181 28.7215C16.6155 28.7235 16.6132 28.7258 16.6107 28.7277C16.6682 28.6834 16.7279 28.6415 16.788 28.5999C16.7356 28.6356 16.6776 28.6763 16.6181 28.7215Z" fill="#333333"/>
    <path d="M15.7364 29.6517C15.7558 29.6236 15.7758 29.5959 15.7959 29.5683C15.776 29.5957 15.7564 29.6226 15.7364 29.6517Z" fill="#333333"/>
    <path d="M44.6095 87.0666L45.1891 87.4027L45.1889 87.403C45.1889 87.403 45.5885 87.6426 46.1537 87.9603L46.611 88.2191C46.6193 88.2239 46.6284 88.2289 46.6371 88.2338L45.5929 87.6327L44.6095 87.0666Z" fill="#333333"/>
    <path d="M16.9176 28.5148C16.9271 28.5088 16.9366 28.5028 16.9462 28.4969C16.9375 28.5022 16.9286 28.5079 16.9176 28.5148Z" fill="#333333"/>
    <path d="M15.6092 29.8481C15.6217 29.8275 15.6343 29.8069 15.6472 29.7866C15.6345 29.8068 15.6219 29.8273 15.6092 29.8481Z" fill="#333333"/>
    <path d="M15.868 29.4705C15.9154 29.4092 15.9639 29.3489 16.0148 29.2904C15.9682 29.3444 15.9192 29.4038 15.868 29.4705Z" fill="#333333"/>
    <path d="M15.0261 31.5662C15.0289 31.5393 15.0308 31.5121 15.0341 31.4853C15.0315 31.5092 15.0288 31.5362 15.0261 31.5662Z" fill="#333333"/>
    <path d="M15.0869 31.1675C15.0913 31.1462 15.0971 31.1252 15.1018 31.104C15.0968 31.1253 15.0914 31.1465 15.0869 31.1675Z" fill="#333333"/>
    <path d="M15.0411 31.4275C15.0402 31.4342 15.0392 31.4429 15.0384 31.4502C15.0437 31.4096 15.0517 31.3695 15.0584 31.3292C15.0532 31.3616 15.0451 31.3964 15.0411 31.4275Z" fill="#333333"/>
    <path d="M15.3881 30.2591C15.3854 30.2649 15.3833 30.2714 15.3806 30.2771C15.3854 30.2666 15.3901 30.2559 15.395 30.2456C15.3928 30.2502 15.3903 30.2544 15.3881 30.2591Z" fill="#333333"/>
    <path d="M15.4874 30.0617C15.4972 30.0432 15.5068 30.0248 15.5169 30.0064C15.5068 30.0245 15.4973 30.0432 15.4874 30.0617Z" fill="#333333"/>
    <path d="M72.8152 30.3435L72.6725 30.2611C72.6725 30.2611 72.6723 30.2611 72.6722 30.2609L62.3087 24.2775L54.7907 19.9371C52.5836 18.6628 49.8643 18.6628 47.6572 19.9371L38.1149 25.4463L33.6199 28.0414C33.3931 28.1723 33.3931 28.4998 33.6199 28.6307L37.9809 31.1485C38.0248 31.1766 38.0638 31.2087 38.1095 31.2352L54.3454 40.6493C56.3994 41.8402 57.6637 44.0348 57.6637 46.4092V72.4109C57.6637 73.0586 58.3648 73.4635 58.9259 73.1399L64.4291 69.9656C65.9229 69.104 66.8432 67.5107 66.8432 65.7863V51.0543C66.8432 49.3588 67.7479 47.7919 69.2163 46.9442L73.1427 44.6773C74.7803 43.7318 75.7921 41.9873 75.7994 40.0964L75.8171 35.5667C75.8256 33.4133 74.6801 31.4202 72.8152 30.3435Z" fill="white"/>
    <path d="M59.1401 39.0403C59.1081 39.0269 59.0764 39.0124 59.0451 38.9969C59.078 39.0132 59.1098 39.0277 59.1401 39.0403Z" fill="#4D4D4D"/>
    <path d="M53.9251 35.9532C53.9292 35.9587 53.9398 35.9678 53.9532 35.9784C53.9417 35.9674 53.9307 35.956 53.9195 35.9446C53.9215 35.9476 53.9229 35.9504 53.9251 35.9532Z" fill="#4D4D4D"/>
    <path d="M58.9499 38.9458L56.0825 37.2735C57.0627 37.8489 58.1733 38.4928 58.9499 38.9458Z" fill="#4D4D4D"/>
    <path d="M59.1491 39.044C59.3247 39.1159 59.4545 39.1329 59.5486 39.1887L59.607 39.1565C59.451 39.1406 59.2966 39.1049 59.1491 39.044Z" fill="#4D4D4D"/>
    <path d="M66.7214 35.2271C66.7064 35.191 66.6923 35.1546 66.6749 35.1197C66.6407 35.1881 66.6018 35.254 66.5587 35.317L66.7214 35.2271Z" fill="#4D4D4D"/>
    <path d="M59.045 38.9968C59.0144 38.9817 58.9829 38.9651 58.9499 38.9457C58.9812 38.964 59.0129 38.9809 59.045 38.9968Z" fill="#333333"/>
    <path d="M54.2531 36.2065L56.0825 37.2734C55.0272 36.6539 54.1249 36.1146 53.9532 35.9785C54.0433 36.0646 54.1427 36.1421 54.2531 36.2065Z" fill="#333333"/>
    <path d="M53.9508 35.558C53.8832 35.6229 53.8203 35.6923 53.765 35.7671C53.8115 35.8301 53.8641 35.8886 53.9195 35.9447C53.7977 35.7733 53.9156 35.6021 53.9508 35.558Z" fill="#333333"/>
    <path d="M15.0464 67.6607L15.048 67.672C15.0478 67.6574 15.0464 67.6431 15.0464 67.6285V67.6607Z" fill="#4D4D4D"/>
    <path d="M49.8964 85.4024C49.8964 85.3832 49.8957 85.3658 49.8954 85.347C49.8815 78.6189 49.8442 60.5506 49.8287 52.4834C49.824 50.081 48.4699 47.739 46.3426 46.4826C46.3426 46.4826 18.034 29.9518 17.9395 29.883C17.6951 29.7298 17.6138 29.6359 17.4625 29.4617C17.2253 29.1885 17.2213 28.7842 17.4545 28.5075C17.5819 28.3562 17.7324 28.2063 17.8582 28.0883C18.0071 27.9484 18.1678 27.8238 18.3402 27.714L18.8063 27.4147L16.9886 28.4711C16.9886 28.4711 16.9722 28.4808 16.9463 28.4969C16.9367 28.5029 16.9271 28.5088 16.9176 28.5149C16.8833 28.5364 16.8384 28.5657 16.788 28.6C16.7279 28.6414 16.6683 28.6834 16.6107 28.7278C16.4879 28.8218 16.3687 28.9357 16.2661 29.0283C16.2464 29.046 16.2228 29.0684 16.1964 29.0944C16.1384 29.1533 16.0821 29.2138 16.0278 29.2758C16.0234 29.2809 16.0193 29.2852 16.0149 29.2904C15.964 29.349 15.9153 29.4093 15.868 29.4704C15.8443 29.5012 15.8201 29.535 15.7959 29.5682C15.7758 29.5959 15.7559 29.6236 15.7365 29.6517C15.7065 29.695 15.6765 29.7404 15.6467 29.7875C15.634 29.8075 15.6215 29.8278 15.6092 29.8481C15.578 29.8991 15.5472 29.9516 15.5169 30.0065C15.5068 30.0247 15.4972 30.0433 15.4874 30.0617C15.4557 30.1211 15.4247 30.1819 15.395 30.2455C15.3901 30.256 15.3854 30.2666 15.3806 30.2772C15.2612 30.5389 15.1645 30.8324 15.1016 31.1049C15.0969 31.1258 15.0912 31.1465 15.087 31.1675C15.075 31.2235 15.067 31.276 15.0583 31.3292C15.0517 31.3695 15.0438 31.4096 15.0383 31.4502C15.0369 31.4616 15.0355 31.4723 15.0341 31.4853C15.0307 31.5121 15.029 31.5392 15.0262 31.5661C15.0147 31.6956 15.0041 31.8875 15.001 32.1743C15.0001 32.2497 14.9998 32.3296 15.0001 32.419L15.046 67.6198C15.046 67.623 15.0464 67.6259 15.0464 67.6291C15.0465 67.6435 15.0478 67.6576 15.048 67.672C15.0533 68.0671 15.1085 68.4428 15.2075 68.7943C15.2135 68.8149 15.2201 68.8352 15.2263 68.8555C15.2447 68.9171 15.2642 68.978 15.2853 69.038C15.3041 69.0912 15.3244 69.144 15.3454 69.1964C15.3551 69.2208 15.3646 69.2453 15.3747 69.2695C15.7187 70.0817 16.3191 70.7766 17.1064 71.234C17.1113 71.2368 17.1157 71.24 17.1206 71.2427L44.6094 87.0666L45.5929 87.6327L46.6372 88.2338C46.64 88.2354 46.6429 88.2371 46.6457 88.2387C46.6696 88.252 46.6929 88.2663 46.714 88.2776C46.7214 88.2815 46.7499 88.2983 46.7926 88.3233C46.9894 88.4392 47.5141 88.7504 47.9511 88.9903L48.0183 89.0289C48.1239 89.0897 48.2317 89.1436 48.3405 89.1945C48.3585 89.2033 48.3776 89.2128 48.3941 89.2207C48.4128 89.2295 48.4326 89.2363 48.4514 89.2447C48.4848 89.2599 48.519 89.2735 48.553 89.2877C48.7992 89.39 49.0595 89.4681 49.3364 89.5162C49.423 89.5312 49.5102 89.5454 49.5999 89.5546C49.653 89.56 49.7043 89.5646 49.7547 89.5685C49.837 89.5755 49.9176 89.5812 49.9954 89.5843C50.124 89.5893 50.2445 89.5854 50.3615 89.5772C50.3961 89.5749 50.4306 89.5704 50.4652 89.5672C50.5479 89.559 50.6295 89.5494 50.709 89.5368C50.7223 89.5348 50.7368 89.5339 50.7501 89.5317C50.7649 89.5293 50.7794 89.5255 50.7941 89.5228C50.8549 89.5122 50.9154 89.4994 50.9759 89.4861C51.0159 89.4772 51.0559 89.4684 51.0958 89.4581C51.1489 89.4447 51.2029 89.4285 51.2568 89.4124C51.2976 89.4 51.3387 89.3887 51.3793 89.3751C51.4678 89.3451 51.5583 89.3106 51.6514 89.2716C51.6758 89.2614 51.7001 89.2504 51.7245 89.2397C51.8054 89.204 51.8879 89.1656 51.9738 89.1222C51.9854 89.1164 51.9958 89.1123 52.0075 89.1063C52.0454 89.0868 52.0852 89.0633 52.1238 89.0417C52.1349 89.0353 52.1463 89.03 52.1573 89.0237L52.1855 89.0073C52.2854 88.9501 52.3879 88.8897 52.4983 88.8267L53.6491 88.1598C53.711 88.1234 53.7498 88.1007 53.7721 88.0886L53.7765 88.086C53.4221 88.2284 49.8964 89.5381 49.8964 85.4024Z" fill="#333333"/>
    <g opacity="0.360001">
        <g opacity="0.360001">
            <path opacity="0.360001" d="M60.3819 40.9828C60.2821 41.0231 60.1791 41.0504 60.0748 41.0702C60.1547 41.0638 60.2559 41.0356 60.3819 40.9828Z" fill="white"/>
        </g>
    </g>
    <path d="M66.0351 35.8038L60.5848 38.9494C60.2838 39.1232 59.9414 39.1904 59.6069 39.1566L59.5486 39.1887C59.7087 39.2838 59.765 39.4918 59.765 40.2776C59.765 40.7223 59.7252 41.0982 60.0748 41.0702C60.179 41.0504 60.2822 41.0232 60.3819 40.9828C60.3867 40.9808 60.391 40.9792 60.3959 40.9772C60.4603 40.9504 60.5235 40.9197 60.5848 40.8842L66.0351 37.7386C66.5395 37.4475 66.8502 36.9092 66.8498 36.3269L66.8495 35.8449C66.8494 35.6284 66.802 35.4203 66.7214 35.227L66.5585 35.317C66.4244 35.513 66.248 35.6809 66.0351 35.8038Z" fill="#4D4D4D"/>
    <g opacity="0.360001">
        <g opacity="0.360001">
            <path opacity="0.360001" d="M66.8495 35.8449C66.8494 35.6284 66.802 35.4203 66.7214 35.2272L66.5586 35.317C66.4244 35.513 66.2479 35.6809 66.0351 35.8038L60.5849 38.9494C60.2839 39.1232 59.9414 39.1904 59.607 39.1565L59.5485 39.1887C59.7087 39.2838 59.7651 39.4918 59.7651 40.2776C59.7651 40.7223 59.7252 41.0982 60.0748 41.0703C60.1789 41.0504 60.2821 41.0232 60.3819 40.9828C60.3867 40.9808 60.391 40.9792 60.3959 40.9771C60.4603 40.9504 60.5235 40.9197 60.5849 40.8842L66.0351 37.7386C66.5394 37.4475 66.8501 36.9092 66.8498 36.3268L66.8495 35.8449Z" fill="white"/>
        </g>
    </g>
    <path d="M66.0163 34.4244L61.6477 31.9787C61.1468 31.6983 60.5352 31.7023 60.0379 31.9891L54.2597 35.3233C54.1456 35.3891 54.0433 35.4691 53.9508 35.558C53.9156 35.6022 53.7977 35.7733 53.9195 35.9447C53.9307 35.9559 53.9417 35.9674 53.9531 35.9784C54.1248 36.1146 55.0272 36.6539 56.0825 37.2734L58.95 38.9458C58.983 38.965 59.0145 38.9818 59.045 38.9968C59.0764 39.0123 59.1081 39.0269 59.1401 39.0403C59.1431 39.0416 59.1461 39.0428 59.1491 39.044C59.2965 39.1049 59.4509 39.1407 59.6069 39.1565C59.9414 39.1904 60.2838 39.1232 60.5848 38.9495L66.0351 35.8037C66.248 35.681 66.4245 35.5131 66.5586 35.317C66.6017 35.254 66.6408 35.1881 66.6749 35.1197C66.5313 34.8323 66.3065 34.5869 66.0163 34.4244Z" fill="#4D4D4D"/>
    <path d="M59.765 40.2776C59.765 39.4919 59.7088 39.2838 59.5485 39.1888C59.4545 39.1329 59.3246 39.116 59.149 39.044C59.1461 39.0428 59.143 39.0415 59.1401 39.0403C59.1098 39.0276 59.078 39.0132 59.045 38.9968C59.0129 38.9809 58.9812 38.964 58.95 38.9458C58.1733 38.4928 57.0626 37.8488 56.0825 37.2734L54.2531 36.2065C54.1427 36.1422 54.0433 36.0645 53.9532 35.9784C53.9398 35.9678 53.9293 35.9587 53.925 35.9532C53.923 35.9503 53.9215 35.9475 53.9195 35.9447C53.8642 35.8886 53.8116 35.8301 53.765 35.767C53.5615 36.0424 53.4453 36.3789 53.4449 36.7325C53.4443 37.3125 53.752 37.849 54.2531 38.1413L57.7512 40.1815L58.95 40.8806C59.2947 41.0816 59.6944 41.1426 60.0747 41.0703C59.7252 41.0983 59.765 40.7223 59.765 40.2776Z" fill="#333333"/>
</svg>
