<svg xmlns="http://www.w3.org/2000/svg" viewBox="0 0 2370.12 651.25"><defs><style>.cls-1{fill:none;}.cls-2{fill:#333;}.cls-3{fill:#4d4d4d;}.cls-4{fill:#fff;}.cls-5{fill:#999;}</style></defs><g id="Layer_2" data-name="Layer 2"><g id="Layer_3" data-name="Layer 3"><path class="cls-1" d="M27.54,145.22a27.16,27.16,0,0,0-3.94,3.06,27.16,27.16,0,0,1,3.94-3.06l3.81-2.45h0Z"/><path class="cls-1" d="M19.81,152.37a6.26,6.26,0,0,1,.49-.66c.78-.93,1.67-1.85,2.5-2.66-.83.81-1.72,1.73-2.5,2.66A6.26,6.26,0,0,0,19.81,152.37Z"/><path class="cls-2" d="M573,179.62a33.85,33.85,0,0,0-17-29.3L303.3,4.86a33.83,33.83,0,0,0-33.85,0L17.12,151l-1,.61h0l-.23.15-1.06.7h0c-.42.29-.9.62-1.38,1l-.06,0c-1,.77-2,1.7-2.82,2.46-.16.14-.36.33-.57.54h0c-.39.38-.86.89-1.38,1.48h0l-.11.12h0q-.57.66-1.2,1.47h0l-.59.8c-.16.23-.33.46-.48.69s-.49.72-.74,1.11c-.1.16-.2.33-.31.49-.25.42-.5.85-.75,1.3l-.24.45c-.26.49-.51,1-.76,1.5l-.06.15.06-.15a.61.61,0,0,0-.05.12l-.06.14h0A36.73,36.73,0,0,0,1.05,173c0,.17-.08.34-.12.51-.09.46-.16.89-.23,1.33s-.12.65-.16,1a2.36,2.36,0,0,0,0,.28c0,.22,0,.44-.06.66-.1,1.06-.18,2.63-.21,5,0,.62,0,1.27,0,2L.6,471.59v.34l0,.09a35.39,35.39,0,0,0,1.3,9.18l.15.5c.15.5.31,1,.49,1.49s.32.87.49,1.3c.08.2.15.4.24.6a33.8,33.8,0,0,0,14.16,16.06l.12.07L242.39,630.64l4.74,2.75h0s3.26,2,7.89,4.56l3.74,2.12.21.12-.24-.14.24.14.07,0,.56.32.64.37c1.61,1,5.9,3.49,9.48,5.45l.55.32c.86.5,1.74.94,2.63,1.35l.44.22.47.2.83.35a30.69,30.69,0,0,0,6.41,1.87c.71.12,1.42.23,2.15.31l1.27.11c.67.06,1.33.11,2,.13a26.68,26.68,0,0,0,3-.06c.28,0,.57,0,.85-.08.68-.06,1.34-.14,2-.25l.34,0,.36-.07c.5-.09,1-.19,1.49-.3l1-.23c.43-.11.87-.24,1.31-.37l1-.31c.73-.24,1.47-.53,2.23-.84l.6-.27c.66-.29,1.33-.6,2-1l.27-.13c.31-.16.64-.35.95-.53l.28-.14.23-.14c.82-.46,1.65-1,2.56-1.47l9.41-5.46c.5-.3.82-.48,1-.58h0l0,0h0L556.45,500.53a33.84,33.84,0,0,0,16.88-29.33ZM20.3,151.71a6.26,6.26,0,0,0-.49.66,6.26,6.26,0,0,1,.49-.66c.78-.93,1.67-1.85,2.5-2.66C22,149.86,21.08,150.78,20.3,151.71Zm7.24-6.49a27.16,27.16,0,0,0-3.94,3.06,27.16,27.16,0,0,1,3.94-3.06l3.81-2.45h0Z"/><path class="cls-2" d="M259.6,640.55l-.56-.32-.07,0,1.27.73Z"/></g><g id="Layer_1-2" data-name="Layer 1"><path class="cls-2" d="M651.59,161.35h155.3c85.55,0,125.88,48.33,125.88,108.47S892.44,378.3,806.89,378.3H761.66v91.5H651.59ZM774.74,313c31.61,0,48.5-12.34,48.5-43.19s-16.89-43.18-48.5-43.18H761.66V313Z"/><path class="cls-2" d="M1288,469.8H1158.33l-63.22-114.12h-16.34V469.8H968.7V161.35h168.92c82.28,0,117.7,47.3,117.7,97.16,0,39.07-21.8,70.95-56.67,85.86ZM1104.38,295.53c26.15,0,41.41-9.77,41.41-35.47s-15.26-35.48-41.41-35.48h-25.61v70.95Z"/><path class="cls-2" d="M1301.61,315.58c0-94.59,84.46-163,184.72-163,99.72,0,184.18,68.38,184.18,163s-84.46,163-184.18,163C1386.07,478.54,1301.61,410.17,1301.61,315.58Zm251.75,0c0-51.41-22.34-84.83-67-84.83-45.22,0-67.56,33.42-67.56,84.83s22.34,84.82,67.56,84.82C1531,400.4,1553.36,367,1553.36,315.58Z"/><path class="cls-2" d="M1719,161.35h163.47c77.38,0,105.72,36.5,105.72,80.71,0,23.65-16.35,49.35-36,60.67,34.33,13.36,53.4,44.21,53.4,76.59,0,49.87-32.14,90.48-117.7,90.48H1719Zm133,117.73c19.07,0,33.24-6.17,33.24-27.25s-14.17-27.25-33.24-27.25H1823.6v54.5Zm3.81,127.49c27.25,0,45.23-6.68,45.23-33.41s-18-33.42-45.23-33.42H1823.6v66.83Z"/><path class="cls-2" d="M2370.12,469.8H2240.43l-63.21-114.12h-16.35V469.8H2050.8V161.35h168.92c82.28,0,117.71,47.3,117.71,97.16,0,39.07-21.8,70.95-56.67,85.86ZM2186.49,295.53c26.15,0,41.4-9.77,41.4-35.47s-15.25-35.48-41.4-35.48h-25.62v70.95Z"/></g><g id="Layer_2-2" data-name="Layer 2"><path class="cls-3" d="M3.23,165.58c.24-.52.5-1,.76-1.5C3.72,164.57,3.47,165.07,3.23,165.58Z"/><path class="cls-3" d="M5.29,161.83c.24-.38.49-.75.73-1.11C5.77,161.09,5.53,161.46,5.29,161.83Z"/><path class="cls-3" d="M4.23,163.62c.24-.44.5-.87.75-1.29Q4.59,163,4.23,163.62Z"/><path class="cls-3" d="M.48,174.44c.07-.43.13-.86.23-1.32C.62,173.56.55,174,.48,174.44Z"/><path class="cls-3" d="M.28,175.72c0-.11,0-.19,0-.29Z"/><path class="cls-3" d="M14.62,152.12c.42-.28.78-.52,1.06-.69C15.33,151.65,15,151.88,14.62,152.12Z"/><path class="cls-3" d="M572.74,179.27a33.85,33.85,0,0,0-17-29.29L303.07,4.51a33.86,33.86,0,0,0-33.85,0L16.89,150.67c-.33.19-.65.41-1,.61l.34-.21,14.87-8.64-3.81,2.45a25.35,25.35,0,0,0-3.94,3.06,42.05,42.05,0,0,0-3.31,3.43,6,6,0,0,0,.07,7.8,14.36,14.36,0,0,0,3.9,3.44c.77.57,232.3,135.77,232.3,135.77,17.4,10.27,28.47,29.43,28.51,49.07.13,66,.43,213.76.55,268.78v.46c0,33.82,28.84,23.11,31.74,21.95L556.22,500.19a33.83,33.83,0,0,0,16.89-29.34Z"/><path class="cls-3" d="M8.3,157.77l.11-.12Z"/><path class="cls-3" d="M6.51,160l.59-.8C6.9,159.5,6.7,159.77,6.51,160Z"/><path class="cls-3" d="M258.82,639.88l-.07,0,1.27.74-.64-.38C259.2,640.11,259,640,258.82,639.88Z"/><path class="cls-2" d="M317.15,638.63h0l0,0Z"/><path class="cls-2" d="M8.41,157.65c.44-.51.9-1,1.38-1.48C9.4,156.55,8.92,157.06,8.41,157.65Z"/><path class="cls-2" d="M13.23,153.12l-.06,0c.47-.37,1-.71,1.45-1C14.19,152.41,13.72,152.75,13.23,153.12Z"/><path class="cls-2" d="M6,160.72l.49-.68Z"/><path class="cls-2" d="M242.16,630.3l4.75,2.75h0s3.27,2,7.89,4.56l3.74,2.11.22.12-8.54-4.91Z"/><path class="cls-2" d="M15.68,151.43l.24-.15Z"/><path class="cls-2" d="M5,162.33l.31-.5Z"/><path class="cls-2" d="M7.1,159.24c.39-.5.78-1,1.2-1.47Q7.73,158.43,7.1,159.24Z"/><path class="cls-2" d="M.21,176.38c0-.22,0-.44.07-.66C.26,175.92.24,176.14.21,176.38Z"/><path class="cls-2" d="M.71,173.12l.12-.51Z"/><path class="cls-2" d="M3.17,165.69l-.06.15.12-.26Z"/><path class="cls-2" d="M4,164.08c.08-.15.15-.31.24-.46Z"/><path class="cls-4" d="M472.85,166.38l-1.17-.67h0l-84.76-48.94-61.49-35.5a58.35,58.35,0,0,0-58.34,0l-78,45.06h0l-36.76,21.22a2.78,2.78,0,0,0,0,4.82L188,173c.36.23.68.49,1.05.7l132.79,77a54.45,54.45,0,0,1,27.14,47.11V510.43a6.89,6.89,0,0,0,10.32,6l45-26A39.47,39.47,0,0,0,424,456.25V335.77a38.82,38.82,0,0,1,19.4-33.62l32.12-18.54a43.48,43.48,0,0,0,21.73-37.46l.14-37.05A49.12,49.12,0,0,0,472.85,166.38Z"/><path class="cls-2" d="M242.17,630.3l4.74,2.75h0s3.27,2,7.89,4.56l3.74,2.11.21.12-8.54-4.91Z"/><path class="cls-2" d="M3.18,165.69l-.06.15.12-.26Z"/><path class="cls-3" d="M.38,471.59v.09c0-.12,0-.24,0-.35Z"/><path class="cls-2" d="M285.4,616.69v-.46c-.12-55-.42-202.8-.55-268.78,0-19.64-11.11-38.8-28.51-49.07,0,0-231.53-135.2-232.3-135.77a14.36,14.36,0,0,1-3.9-3.44,6,6,0,0,1-.07-7.8,42.05,42.05,0,0,1,3.31-3.43,25.35,25.35,0,0,1,3.94-3.06l3.81-2.45-14.87,8.64-.34.21-.24.15c-.28.17-.64.41-1.06.69s-1,.68-1.45,1c-1,.77-2,1.7-2.81,2.46a6.69,6.69,0,0,0-.57.54c-.48.48-.94,1-1.38,1.48l-.11.12c-.42.48-.81,1-1.2,1.47l-.59.8-.49.68c-.24.36-.49.73-.73,1.11l-.31.5c-.25.42-.51.85-.75,1.29-.09.15-.16.31-.24.46-.26.48-.52,1-.76,1.5l-.12.26a37.45,37.45,0,0,0-2.28,6.77l-.12.51c-.1.46-.16.89-.23,1.32s-.12.66-.17,1c0,.1,0,.18,0,.29s0,.44-.07.66c-.09,1.06-.18,2.63-.2,5,0,.61,0,1.26,0,2L.38,471.25v.08c0,.11,0,.23,0,.35a35.88,35.88,0,0,0,1.31,9.18l.15.5c.15.5.31,1,.48,1.49s.32.87.49,1.29l.24.6a33.89,33.89,0,0,0,14.17,16.07l.11.07L242.16,630.3l8.05,4.63,8.54,4.91.07,0c.19.11.38.23.56.32l.64.38c1.61.94,5.9,3.49,9.47,5.45l.55.32q1.31.74,2.64,1.35l.44.21c.15.08.31.13.47.2s.55.24.83.35a29.61,29.61,0,0,0,6.4,1.87c.71.13,1.42.24,2.16.32l1.26.11c.68.06,1.34.1,2,.13a26.81,26.81,0,0,0,3-.06l.85-.08c.67-.07,1.34-.15,2-.25l.34,0,.36-.07c.49-.09,1-.19,1.48-.3l1-.23c.44-.11.88-.25,1.32-.38s.67-.19,1-.3c.73-.25,1.47-.53,2.23-.85l.6-.26c.66-.29,1.33-.6,2-1l.28-.13c.31-.16.64-.35.95-.53.09-.05.19-.09.28-.15l.23-.13,2.55-1.48,9.42-5.45,1-.58,0,0C314.24,639.8,285.4,650.51,285.4,616.69Z"/><path class="cls-2" d="M423.46,206.31a13.27,13.27,0,0,0-1-5s-.4-.91-.4-.92a13.37,13.37,0,0,0-5.39-5.69l-35.73-20a13.33,13.33,0,0,0-13.17.08L320.5,202A13,13,0,0,0,318,204a13.67,13.67,0,0,0-1.52,1.71,13.3,13.3,0,0,0,4,19.42l28.61,16.68,9.81,5.72a13.71,13.71,0,0,0,11.71.84l.11-.05a13.07,13.07,0,0,0,1.55-.76L416.8,221.8a13.35,13.35,0,0,0,6.67-11.55Z"/><path class="cls-5" d="M416.8,206,372.23,231.7a13.28,13.28,0,0,1-8,1.58l-4-.79,3.55,1.23c1.31.78,1.77,2.41,1.77,8.84,0,3.64-.32,6.71,2.54,6.48a13.24,13.24,0,0,0,2.51-.71l.11-.05a13.07,13.07,0,0,0,1.55-.76L416.8,221.8a13.35,13.35,0,0,0,6.67-11.55v-3.94a13.27,13.27,0,0,0-1-5s-.4-.91-.4-.92l-.47.84-.49.77A13.07,13.07,0,0,1,416.8,206Z"/><path class="cls-3" d="M416.65,194.69l-35.73-20a13.33,13.33,0,0,0-13.17.08L320.5,202A13,13,0,0,0,318,204a2.62,2.62,0,0,0-.26,3.16l.28.28c1.4,1.11,8.78,5.52,17.41,10.59l23.46,13.68c.27.16.52.29.77.42l.78.35.08,0a13.54,13.54,0,0,0,11.74-.77L416.8,206a13.67,13.67,0,0,0,5.24-5.59A13.37,13.37,0,0,0,416.65,194.69Z"/><path class="cls-2" d="M317.71,207.12A2.62,2.62,0,0,1,318,204a13.67,13.67,0,0,0-1.52,1.71,13.3,13.3,0,0,0,4,19.42l28.61,16.68,9.81,5.72a13.21,13.21,0,0,0,9.2,1.55c-2.86.23-2.54-2.84-2.54-6.48,0-6.43-.46-8.13-1.77-8.9,0,0-1.42-.55-2.34-.85-.29-.1-.6-.2-.92-.34l-.08,0c-.25-.1-.51-.22-.78-.35s-.52-.27-.77-.42c-6.36-3.71-15.44-9-23.46-13.68-8.63-5.07-16-9.48-17.41-10.59Z"/></g></g></svg>
